<?xml version="1.0" encoding="utf-8"?>
<svg viewBox="0 0 300 299.97186" xmlns="http://www.w3.org/2000/svg">
  <defs>
    <clipPath id="clip8">
      <path d="M 36,788.34766 56.878906,809.21484 77.746094,788.34766 56.878906,767.47266 Z" id="path2126"/>
    </clipPath>
    <clipPath id="clip9">
      <path d="m 45.355469,788.34766 c 0,6.35937 5.15625,11.51562 11.523437,11.51562 6.359375,0 11.511719,-5.15625 11.511719,-11.51562 0,-6.36719 -5.152344,-11.51954 -11.511719,-11.51954 -6.367187,0 -11.523437,5.15235 -11.523437,11.51954" id="path2334"/>
    </clipPath>
  </defs>
  <g transform="matrix(1, 0, 0, 1, -348.90869140625, -258.4792175292969)" id="layer1">
    <g transform="matrix(7.1863011,0,0,7.1863011,90.201851,-5256.8104)" id="g8264">
      <g clip-path="url(#clip8)" id="g7014" style="clip-rule:nonzero">
        <path d="M 78.746 766.473 L 78.746 788.344 L 78.746 810.215 L 56.873 810.215 L 35 810.215 L 35 788.344 L 35 766.473 L 56.873 766.473 L 78.746 766.473" id="path7016" style="fill-rule: nonzero; stroke: none; fill: rgb(230, 113, 35); stroke-width: 4.17461px; stroke-miterlimit: 1; stroke-dashoffset: -50px;"/>
      </g>
      <path d="m 69.667969,788.34766 c 0,7.0664 -5.722656,12.79296 -12.792969,12.79296 -7.066406,0 -12.796875,-5.72656 -12.796875,-12.79296 0,-7.07032 5.730469,-12.80079 12.796875,-12.80079 7.070313,0 12.792969,5.73047 12.792969,12.80079" id="path7018" style="fill:#ffffff;fill-opacity:1;fill-rule:nonzero;stroke:none"/>
      <g clip-path="url(#clip9)" id="g7020" style="clip-rule:nonzero">
        <path d="m 68.390625,776.82812 -23.035156,0 0,23.03516 L 68.390625,799.86328 Z" id="path7022" style="fill-rule: nonzero; stroke: none; fill: rgb(230, 113, 35);"/>
      </g>
      <path d="m 50.167969,790.58984 c -0.117188,0.0937 -0.222656,0.17969 -0.320313,0.26172 -0.08984,0.082 -0.210937,0.15235 -0.371093,0.23438 -0.15625,0.082 -0.300782,0.14062 -0.453125,0.17187 -0.144532,0.043 -0.347657,0.0625 -0.613282,0.0625 -0.488281,0 -0.894531,-0.17187 -1.214843,-0.49609 -0.324219,-0.33203 -0.488282,-0.73828 -0.488282,-1.24219 0,-0.41797 0.08203,-0.75 0.246094,-1 0.167969,-0.25391 0.402344,-0.45703 0.707031,-0.60547 0.3125,-0.14844 0.6875,-0.2539 1.117188,-0.3125 0.4375,-0.0547 0.902344,-0.10937 1.40625,-0.13672 l 0,-0.0351 c 0,-0.30078 -0.117188,-0.51563 -0.339844,-0.62891 -0.226562,-0.11719 -0.5625,-0.17578 -1.015625,-0.17578 -0.207031,0 -0.441406,0.0391 -0.714844,0.11719 -0.269531,0.0664 -0.535156,0.16797 -0.800781,0.28125 l -0.140625,0 0,-1.33985 c 0.171875,-0.0547 0.445313,-0.10937 0.828125,-0.17968 0.382813,-0.0703 0.765625,-0.10547 1.160156,-0.10547 0.953125,0 1.644532,0.16406 2.082032,0.47656 0.441406,0.32031 0.660156,0.80859 0.660156,1.45703 l 0,3.77734 L 50.167969,791.17187 z m 0,-0.86718 0,-1.15235 c -0.292969,0.0312 -0.527344,0.0586 -0.703125,0.082 -0.175781,0.0195 -0.355469,0.0547 -0.527344,0.1211 -0.152344,0.0508 -0.269531,0.1289 -0.347656,0.23828 -0.08594,0.10937 -0.132813,0.25 -0.132813,0.42187 0,0.25782 0.07422,0.4375 0.210938,0.53516 0.136719,0.0977 0.34375,0.14062 0.621094,0.14062 0.140625,0 0.296875,-0.0234 0.449218,-0.10156 0.164063,-0.0625 0.304688,-0.16406 0.429688,-0.28515" id="path7024" style="fill:#ffffff;fill-opacity:1;fill-rule:nonzero;stroke:none"/>
      <path d="m 55.695313,791.32031 c -0.457032,0 -0.882813,-0.0625 -1.261719,-0.17578 -0.375,-0.11719 -0.703125,-0.29297 -0.984375,-0.53125 -0.28125,-0.24609 -0.496094,-0.54687 -0.652344,-0.90625 -0.15625,-0.36328 -0.230469,-0.79687 -0.230469,-1.28516 0,-0.53515 0.07813,-0.97656 0.25,-1.35546 0.167969,-0.3711 0.390625,-0.67579 0.683594,-0.91407 0.277344,-0.23047 0.601563,-0.40234 0.980469,-0.51172 0.371094,-0.11328 0.761719,-0.16796 1.167969,-0.16796 0.304687,0 0.617187,0.0391 0.917968,0.11328 0.308594,0.0664 0.613282,0.17968 0.921875,0.33593 l 0,1.48047 -0.222656,0 c -0.0625,-0.0664 -0.152344,-0.14062 -0.25,-0.21093 -0.105469,-0.0859 -0.207031,-0.15625 -0.328125,-0.21875 -0.125,-0.0781 -0.273437,-0.125 -0.421875,-0.17969 -0.164062,-0.0469 -0.339844,-0.0742 -0.535156,-0.0742 -0.441406,0 -0.785156,0.15234 -1.027344,0.46484 -0.238281,0.30469 -0.367187,0.71875 -0.367187,1.23828 0,0.55079 0.132812,0.96875 0.390625,1.24219 0.257812,0.26953 0.597656,0.40625 1.03125,0.40625 0.21875,0 0.414062,-0.0273 0.582031,-0.0703 0.160156,-0.0508 0.300781,-0.11328 0.414062,-0.17969 0.121094,-0.0703 0.222657,-0.13672 0.304688,-0.21484 0.08203,-0.0703 0.15625,-0.13672 0.207031,-0.19531 l 0.222656,0 0,1.47656 c -0.09766,0.043 -0.210937,0.0937 -0.34375,0.15234 -0.128906,0.0508 -0.253906,0.0977 -0.394531,0.13281 -0.164062,0.0547 -0.328125,0.0781 -0.472656,0.10547 -0.148438,0.0274 -0.339844,0.043 -0.582031,0.043" id="path7026" style="fill:#ffffff;fill-opacity:1;fill-rule:nonzero;stroke:none"/>
      <path d="m 65.039063,791.17187 0,-2.77343 c 0,-0.26953 -0.0039,-0.4961 -0.01563,-0.6875 -0.01172,-0.1875 -0.04297,-0.34375 -0.09375,-0.46094 -0.04687,-0.12109 -0.128907,-0.20313 -0.230469,-0.25781 -0.101563,-0.0586 -0.25,-0.082 -0.433594,-0.082 -0.132812,0 -0.261719,0.0234 -0.394531,0.082 -0.128906,0.0586 -0.269531,0.14453 -0.421875,0.24609 l 0,3.93359 -1.730469,0 0,-2.77343 c 0,-0.26953 -0.0039,-0.4961 -0.01563,-0.6875 -0.01563,-0.1875 -0.03906,-0.34375 -0.08984,-0.46094 -0.05469,-0.12109 -0.128906,-0.20313 -0.230468,-0.25781 -0.109375,-0.0586 -0.253907,-0.082 -0.4375,-0.082 -0.144532,0 -0.28125,0.0312 -0.417969,0.0937 -0.136719,0.0703 -0.269531,0.14843 -0.394531,0.23437 l 0,3.93359 -1.730469,0 0,-5.54296 1.730469,0 0,0.61328 c 0.28125,-0.23828 0.550781,-0.42969 0.800781,-0.56641 0.246094,-0.13281 0.527344,-0.20312 0.84375,-0.20312 0.335937,0 0.636719,0.082 0.886719,0.24218 0.265625,0.16016 0.457031,0.39844 0.59375,0.72266 0.332031,-0.30859 0.648437,-0.54688 0.9375,-0.71484 0.296875,-0.16797 0.59375,-0.25 0.894531,-0.25 0.257812,0 0.488281,0.0469 0.695312,0.125 0.203125,0.0859 0.378907,0.21093 0.515625,0.37109 0.160157,0.17969 0.273438,0.39062 0.347657,0.63672 0.08203,0.24609 0.117187,0.5625 0.117187,0.96094 L 66.765625,791.17187 Z" id="path7028" style="fill:#ffffff;fill-opacity:1;fill-rule:nonzero;stroke:none"/>
    </g>
  </g>
</svg>